<svg width="1325" height="403" viewBox="0 0 1325 403" fill="none" xmlns="http://www.w3.org/2000/svg">
<path d="M179.042 380.208L44.7607 245.927L44.7607 156.407L179.042 290.688L179.042 380.208Z" fill="black"/>
<path d="M313.323 245.927L179.042 111.646L179.041 22.1253L313.322 156.406L313.323 245.927Z" fill="black"/>
<path d="M223.802 290.687L134.282 201.167L134.281 111.646L223.802 201.167L223.802 290.687Z" fill="black"/>
<path d="M89.5215 111.647L89.5215 156.407L89.5215 201.167L44.7612 156.407L89.5215 111.647Z" fill="black"/>
<path d="M268.562 290.687L268.562 245.926L268.562 201.166L313.322 245.926L268.562 290.687Z" fill="black"/>
<path d="M623.449 302.218V341H439.953V302.218H623.449ZM620.038 108.488L460.242 341H426.307V311.375L586.822 79.5808H620.038V108.488ZM602.442 79.5808V118.542H426.846V79.5808H602.442ZM660.077 79.5808H755.056C774.926 79.5808 791.983 82.5732 806.227 88.5581C820.471 94.543 831.423 103.401 839.084 115.131C846.745 126.861 850.575 141.285 850.575 158.402C850.575 171.927 848.181 183.658 843.393 193.593C838.605 203.527 831.842 211.846 823.104 218.55C814.486 225.253 804.312 230.519 792.582 234.35L777.141 242.25H693.293L692.934 203.288H755.595C765.769 203.288 774.208 201.493 780.911 197.902C787.614 194.311 792.641 189.343 795.993 182.999C799.464 176.655 801.2 169.414 801.2 161.274C801.2 152.536 799.524 144.995 796.173 138.651C792.821 132.188 787.734 127.22 780.911 123.749C774.088 120.278 765.47 118.542 755.056 118.542H709.452V341H660.077V79.5808ZM807.664 341L747.156 223.936L799.404 223.756L860.63 338.486V341H807.664ZM886.843 341V302.218H1061.9V341H886.843ZM906.593 226.988V189.283H1041.79V226.988H906.593ZM890.434 118.542V79.5808H1054.9V118.542H890.434ZM1151.85 79.5808V341H1102.48V79.5808H1151.85ZM1308.78 79.5808L1203.92 207.059L1143.95 271.157L1135.16 223.218L1176.81 169.174L1248.27 79.5808H1308.78ZM1253.84 341L1172.5 218.55L1207.87 186.59L1312.55 341H1253.84Z" fill="black"/>
</svg>
