<svg width="947" height="281" viewBox="0 0 947 281" fill="none" xmlns="http://www.w3.org/2000/svg">
<rect x="41" y="110.95" width="19.7" height="59.1" fill="black"/>
<rect x="41" y="170.05" width="19.7055" height="97.51" transform="rotate(-45 41 170.05)" fill="black"/>
<rect x="109.95" y="239" width="19.7" height="59.1" transform="rotate(-90 109.95 239)" fill="black"/>
<rect x="238" y="170.05" width="19.7" height="59.1" transform="rotate(180 238 170.05)" fill="black"/>
<rect x="238" y="110.95" width="19.7055" height="97.51" transform="rotate(135 238 110.95)" fill="black"/>
<rect x="109.95" y="42" width="19.7055" height="97.51" transform="rotate(45 109.95 42)" fill="black"/>
<rect x="224.068" y="156.118" width="19.7024" height="97.51" transform="rotate(45 224.068 156.118)" fill="black"/>
<rect width="19.7" height="59.1" transform="matrix(1.04907e-06 1 -1 1.63918e-08 169.05 42)" fill="black"/>
<path d="M139.5 196.779L97.71 154.989L97.71 127.129L139.5 168.919L139.5 196.779Z" fill="black"/>
<path d="M181.29 154.99L139.5 113.2L139.5 85.3403L181.29 127.13L181.29 154.99Z" fill="black"/>
<path d="M153.43 168.92L125.57 141.06L125.57 113.2L153.43 141.06L153.43 168.92Z" fill="black"/>
<path d="M111.64 113.2V127.13V141.06L97.7099 127.13L111.64 113.2Z" fill="black"/>
<path d="M167.36 168.92L167.36 154.99L167.36 141.06L181.29 154.99L167.36 168.92Z" fill="black"/>
<path d="M294.587 214.443V199.06L378.064 82.4577H294.587V66H401.622V81.3821L318.146 197.985H403.236V214.443H294.587Z" fill="black"/>
<path d="M546.267 214.658L508.401 155.603H478.711V214.658H460.208V66H519.912C547.128 66 566.491 83.4258 566.491 110.748C566.491 138.07 548.203 152.161 527.98 153.99L568.105 214.658H546.267ZM517.76 82.4577H478.711V139.253H517.76C535.402 139.253 547.45 127.421 547.45 110.748C547.45 94.075 535.402 82.4577 517.76 82.4577Z" fill="black"/>
<path d="M884.455 214.443L828.086 147.643L813.133 164.531V214.443H794.631V66H813.133V142.803L878.861 66H901.989L840.134 136.564L907.368 214.443H884.455Z" fill="black"/>
<path d="M641.551 66L625.092 82.4577H721.155L737.613 66H641.551Z" fill="black"/>
<path d="M643.164 130.326L626.706 146.891H719.864L736.323 130.326H643.164Z" fill="black"/>
<path d="M641.335 198.09L624.876 214.548H721.155L737.613 198.09H641.335Z" fill="black"/>
</svg>
